<svg xmlns="http://www.w3.org/2000/svg" width="595.28" height="595.28"><g fill="#CCD1DD"><path d="M423.7 267.03c0 4.22-.62 8.3-1.78 12.14.54-3.78.811-7.64.811-11.57 0-4.69-.391-9.29-1.15-13.77a41.794 41.794 0 012.119 13.2z"/><path d="M422.73 267.601c0 3.93-.271 7.79-.811 11.57-2.7 8.97-8.31 16.67-15.74 22.01-10.609-7.63-17.52-20.08-17.52-34.15s6.91-26.53 17.52-34.16c7.13 5.13 12.59 12.44 15.4 20.96a82.174 82.174 0 011.151 13.77z"/><path d="M406.18 232.871c-10.609 7.63-17.52 20.09-17.52 34.16 0 14.07 6.91 26.52 17.52 34.15a41.874 41.874 0 01-24.52 7.891h-.51c0-15.34-4.17-29.71-11.44-42.041 7.271-12.33 11.44-26.71 11.44-42.05h.51a41.869 41.869 0 0124.52 7.89z"/><path d="M381.15 224.98c0 15.34-4.17 29.72-11.44 42.05a83.309 83.309 0 00-22.14-24.62c7.55-10.43 19.76-17.26 33.58-17.43zM369.71 267.03c7.271 12.33 11.44 26.7 11.44 42.041-13.82-.17-26.03-6.99-33.58-17.42a83.313 83.313 0 0022.14-24.621z"/><path d="M347.57 242.411c8.93 6.63 16.479 15 22.14 24.62a83.309 83.309 0 01-22.14 24.62 41.735 41.735 0 01-7.63-19.4 42.786 42.786 0 000-10.44 41.73 41.73 0 017.63-19.4zM340.26 350.201v.319c-.16.011-.31.011-.47.011-15.25 0-29.54-4.11-41.81-11.301a83.287 83.287 0 0025.25-22.819c10.33 7.649 17.03 19.939 17.03 33.79z"/><path d="M339.79 350.531c.16 0 .31 0 .47-.011a41.802 41.802 0 01-6.54 22.2c-7.46-11.729-20.58-19.52-35.51-19.52s-28.05 7.79-35.51 19.52a41.823 41.823 0 01-6.53-22.189c15.25 0 29.54-4.11 41.81-11.301 12.27 7.19 26.56 11.301 41.81 11.301zM339.94 261.811a42.786 42.786 0 010 10.44c-.221-1.71-.33-3.45-.33-5.22s.11-3.51.33-5.22zM339.79 184.42v.24c-15.25 0-29.54 4.11-41.81 11.3-12.27-7.19-26.56-11.3-41.81-11.3-.16 0-.31 0-.47.01v-.25c0-9.3 3.01-17.89 8.12-24.85 7.61 10.8 20.17 17.85 34.39 17.85 13.93 0 26.28-6.77 33.92-17.2a41.884 41.884 0 017.66 24.2z"/><path d="M332.13 160.22c-7.64 10.43-19.99 17.2-33.92 17.2-14.22 0-26.78-7.05-34.39-17.85 7.65-10.42 20-17.19 33.92-17.19 14.21 0 26.78 7.05 34.39 17.84zM298.21 353.201c14.93 0 28.05 7.79 35.51 19.52-6.39 10.061-16.939 17.21-29.229 19.061-2.07.149-4.17.229-6.28.229-2.11 0-4.21-.08-6.28-.229-12.29-1.851-22.83-9-29.23-19.061 7.459-11.73 20.579-19.52 35.509-19.52zM339.79 184.661c-.08 13.73-6.74 25.91-16.99 33.53a83.3 83.3 0 00-24.82-22.23c12.27-7.19 26.56-11.3 41.81-11.3z"/><path d="M297.98 195.96a83.3 83.3 0 0124.82 22.23 41.835 41.835 0 01-16.979 7.49 42.42 42.42 0 00-7.61-.69c-2.77 0-5.47.27-8.08.78a41.701 41.701 0 01-17.13-7.35 83.115 83.115 0 0124.979-22.46zM323.23 316.411a83.299 83.299 0 01-25.25 22.819 83.222 83.222 0 01-25.09-22.6 41.9 41.9 0 0119.07-8.02c2.04.3 4.12.46 6.25.46s4.21-.16 6.25-.46a41.775 41.775 0 0118.77 7.801z"/><path d="M305.82 225.68c-1.23.24-2.48.43-3.74.56-1.28-.07-2.57-.1-3.87-.1-1.51 0-3.02.04-4.51.12-1.21-.11-2.4-.27-3.57-.49 2.61-.51 5.31-.78 8.08-.78 2.6 0 5.14.24 7.61.69z"/><path d="M298.21 226.141c1.3 0 2.59.03 3.87.1-1.43.15-2.87.22-4.34.22-1.36 0-2.71-.06-4.04-.2 1.49-.081 3-.12 4.51-.12zM298.21 392.01c2.11 0 4.21-.08 6.28-.229-2.05.3-4.141.46-6.28.46-2.14 0-4.23-.16-6.28-.46 2.07.149 4.17.229 6.28.229zM298.21 308.151c2.13 0 4.21.159 6.25.46-2.04.3-4.12.46-6.25.46s-4.21-.16-6.25-.46c2.04-.301 4.12-.46 6.25-.46zM297.98 195.96A83.13 83.13 0 00273 218.42c-10.42-7.6-17.22-19.88-17.3-33.75.16-.01.31-.01.47-.01 15.25.001 29.54 4.111 41.81 11.3zM272.89 316.63a83.236 83.236 0 0025.09 22.6c-12.27 7.19-26.56 11.301-41.81 11.301v-.33c0-13.71 6.57-25.901 16.72-33.571zM257.18 260.26c.42 2.38.64 4.84.64 7.34s-.22 4.96-.64 7.34a81.09 81.09 0 01-.33-7.34c0-2.47.11-4.92.33-7.34z"/><path d="M257.18 274.94c-.04.23-.08.46-.13.69-.58-2.77-.88-5.65-.88-8.6 0-2.75.26-5.43.77-8.03.09.41.17.83.24 1.26a81.09 81.09 0 00-.33 7.34c0 2.47.11 4.921.33 7.34z"/><path d="M256.94 259c-.51 2.6-.77 5.28-.77 8.03 0 2.95.3 5.83.88 8.6a41.72 41.72 0 01-7.27 16.69 83.244 83.244 0 01-23.06-25.29 83.35 83.35 0 0122.51-24.89 41.857 41.857 0 017.71 16.86z"/><path d="M215.77 225.55c13.65 0 25.78 6.51 33.46 16.59a83.35 83.35 0 00-22.51 24.89c-7.18-12.18-11.34-26.35-11.43-41.48h.48z"/><path d="M249.78 292.32c-7.64 10.5-20.03 17.32-34.01 17.32h-.48c-.01-.189-.01-.38-.01-.569 0-15.34 4.17-29.71 11.44-42.041a83.244 83.244 0 0023.06 25.29z"/><path d="M215.29 225.55c.09 15.13 4.25 29.3 11.43 41.48-7.27 12.33-11.44 26.7-11.44 42.041 0 .189 0 .38.01.569a41.928 41.928 0 01-24.83-8.46c10.17-7.68 16.74-19.86 16.74-33.58 0-13.72-6.57-25.91-16.74-33.58a41.896 41.896 0 0124.83-8.47z"/><path d="M190.46 234.021c10.17 7.67 16.74 19.86 16.74 33.58 0 13.72-6.57 25.9-16.74 33.58-9.89-7.48-16.38-19.22-16.72-32.49-.01-.37-.01-.73-.01-1.09 0-13.721 6.57-25.911 16.73-33.58z"/></g><g fill="none" stroke="#CCD1DD" stroke-width="7" stroke-miterlimit="10"><path d="M263.82 159.57c-1.73-2.46-3.2-5.1-4.37-7.91-2.11-5-3.28-10.51-3.28-16.28 0-23.22 18.82-42.05 42.04-42.05s42.05 18.83 42.05 42.05c0 5.77-1.17 11.28-3.279 16.28a41.403 41.403 0 01-4.851 8.56M333.72 372.72c1.8 2.82 3.261 5.87 4.351 9.101a41.942 41.942 0 012.189 13.42c0 23.22-18.83 42.05-42.05 42.05s-42.04-18.83-42.04-42.05a41.947 41.947 0 016.53-22.521M406.18 232.871c2.17-1.56 4.49-2.92 6.94-4.04 5.35-2.47 11.3-3.85 17.58-3.85 23.22 0 42.05 18.83 42.05 42.05s-18.83 42.041-42.05 42.041c-6.09 0-11.88-1.301-17.101-3.62a42.588 42.588 0 01-7.42-4.271M190.46 301.18a42.474 42.474 0 01-7.88 4.69 41.915 41.915 0 01-17.43 3.77c-23.22 0-42.04-18.82-42.04-42.04s18.82-42.05 42.04-42.05c6.22 0 12.12 1.35 17.43 3.78 2.81 1.28 5.44 2.85 7.88 4.69M256.94 259c.21-1.09.46-2.16.76-3.22 3.69-13.34 13.8-24.02 26.8-28.5 1.82-.63 3.7-1.14 5.63-1.51 2.61-.51 5.31-.78 8.08-.78 2.6 0 5.14.24 7.61.69 2.09.38 4.13.92 6.1 1.6 12.021 4.14 21.57 13.57 25.86 25.51 1.04 2.87 1.77 5.89 2.16 9.02M291.96 308.611c-2.57-.391-5.07-1-7.46-1.83-13.35-4.601-23.66-15.74-27.09-29.59-.13-.51-.25-1.03-.36-1.56M339.94 272.25c-.341 2.74-.94 5.39-1.78 7.93-4.101 12.46-13.86 22.34-26.24 26.601-2.39.83-4.89 1.439-7.46 1.83"/><path d="M421.58 253.831c1.38 4.15 2.12 8.59 2.12 13.2 0 4.22-.62 8.3-1.78 12.14-2.7 8.97-8.31 16.67-15.74 22.01a41.874 41.874 0 01-24.52 7.891h-.51c-13.82-.17-26.03-6.99-33.58-17.42a41.735 41.735 0 01-7.63-19.4c-.221-1.71-.33-3.45-.33-5.22s.109-3.51.33-5.22c.88-7.19 3.59-13.81 7.63-19.4 7.55-10.43 19.76-17.26 33.58-17.43h.51c9.149 0 17.62 2.93 24.52 7.89 7.13 5.128 12.59 12.439 15.4 20.959zM257.18 260.26c.42 2.38.64 4.84.64 7.34s-.22 4.96-.64 7.34c-.04.23-.08.46-.13.69a41.72 41.72 0 01-7.27 16.69c-7.64 10.5-20.03 17.32-34.01 17.32h-.48a41.928 41.928 0 01-24.83-8.46c-9.89-7.48-16.38-19.22-16.72-32.49-.01-.37-.01-.73-.01-1.09 0-13.72 6.57-25.91 16.73-33.58a41.883 41.883 0 0124.83-8.47h.48c13.65 0 25.78 6.51 33.46 16.59a41.857 41.857 0 017.71 16.86c.09.411.17.831.24 1.26zM323.23 316.411c10.329 7.649 17.029 19.939 17.029 33.79v.319a41.802 41.802 0 01-6.54 22.2c-6.39 10.061-16.939 17.21-29.229 19.061-2.05.3-4.141.46-6.28.46-2.14 0-4.23-.16-6.28-.46-12.29-1.851-22.83-9-29.23-19.061a41.823 41.823 0 01-6.53-22.189v-.33c0-13.71 6.57-25.9 16.72-33.57a41.9 41.9 0 0119.07-8.02 42.726 42.726 0 0112.5 0 41.763 41.763 0 0118.77 7.8zM332.13 160.22a41.88 41.88 0 017.66 24.2v.24c-.08 13.73-6.74 25.91-16.99 33.53a41.835 41.835 0 01-16.979 7.49 41.485 41.485 0 01-8.08.78c-1.36 0-2.71-.06-4.04-.2-1.21-.11-2.4-.27-3.57-.49a41.701 41.701 0 01-17.13-7.35c-10.42-7.6-17.22-19.88-17.3-33.75v-.25c0-9.3 3.01-17.89 8.12-24.85 7.65-10.42 20-17.19 33.92-17.19 14.209 0 26.779 7.05 34.389 17.84z"/><path d="M381.15 224.98c0 15.34-4.17 29.72-11.44 42.05a83.309 83.309 0 01-22.14 24.62 83.608 83.608 0 01-15.311 8.99 82.062 82.062 0 01-20.34 6.141c-4.46.75-9.04 1.14-13.71 1.14s-9.25-.39-13.71-1.14a81.714 81.714 0 01-20.92-6.42 83.081 83.081 0 01-13.8-8.041 83.244 83.244 0 01-23.06-25.29c-7.18-12.18-11.34-26.35-11.43-41.48-.01-.19-.01-.38-.01-.57 0-11.74 2.44-22.92 6.85-33.04 7.51-17.29 20.75-31.51 37.32-40.28 11.44-6.07 24.46-9.53 38.29-9.6.16-.01.31-.01.47-.01 14.01 0 27.2 3.47 38.771 9.61 16.659 8.81 29.949 23.14 37.439 40.56 4.331 10.051 6.731 21.12 6.731 32.76z"/><path d="M381.15 309.071c0 12.189-2.631 23.76-7.341 34.189a83.332 83.332 0 01-35.739 38.561 82.399 82.399 0 01-33.58 9.96c-2.07.149-4.17.229-6.28.229-2.11 0-4.21-.08-6.28-.229a82.39 82.39 0 01-33.57-9.96c-15.62-8.57-28.18-22.03-35.62-38.311-4.72-10.33-7.38-21.79-7.45-33.87-.01-.189-.01-.38-.01-.569 0-15.34 4.17-29.71 11.44-42.041a83.35 83.35 0 0122.51-24.89c4.65-3.4 9.66-6.34 14.97-8.73a81.87 81.87 0 0120.3-6.13 81.91 81.91 0 0113.71-1.14c1.3 0 2.59.03 3.87.1 3.34.14 6.62.49 9.84 1.04 6.9 1.13 13.51 3.13 19.72 5.87a83.324 83.324 0 0115.931 9.26c8.93 6.63 16.479 15 22.14 24.62 7.269 12.33 11.439 26.7 11.439 42.041z"/><path d="M421.58 253.831a82.28 82.28 0 011.15 13.77c0 3.93-.271 7.79-.811 11.57a82.02 82.02 0 01-8.32 26.28c-8.569 16.68-22.63 30.08-39.79 37.81-10.25 4.61-21.6 7.2-33.55 7.26-.16.011-.31.011-.47.011-15.25 0-29.54-4.11-41.81-11.301a83.222 83.222 0 01-25.09-22.6 82.494 82.494 0 01-9.31-16.27 81.813 81.813 0 01-6.17-23.17c-.1-.74-.17-1.5-.23-2.25a81.09 81.09 0 01-.33-7.34c0-2.47.11-4.92.33-7.34.12-1.51.29-3 .52-4.48a81.756 81.756 0 016.5-22.37 82.86 82.86 0 018.8-14.99 83.13 83.13 0 0124.98-22.46c12.27-7.19 26.56-11.3 41.81-11.3 12.36 0 24.09 2.7 34.63 7.56a83.202 83.202 0 0138.7 36.61 82.037 82.037 0 018.461 25z"/><path d="M337.78 252.791c.88 4.8 1.33 9.75 1.33 14.81 0 4.28-.32 8.48-.95 12.58a81.945 81.945 0 01-5.9 20.46 82.25 82.25 0 01-9.029 15.771 83.299 83.299 0 01-25.25 22.819c-12.27 7.19-26.56 11.301-41.81 11.301-11.89 0-23.2-2.5-33.43-7.021a83.143 83.143 0 01-40.16-37.64 82.297 82.297 0 01-9.33-37.17c-.02-.36-.02-.73-.02-1.1 0-13.8 3.38-26.82 9.35-38.27 8.58-16.48 22.54-29.72 39.55-37.39 10.25-4.62 21.61-7.21 33.57-7.27.16-.01.31-.01.47-.01 15.25 0 29.54 4.11 41.81 11.3a83.3 83.3 0 0124.82 22.23c3.44 4.64 6.41 9.65 8.84 14.96a81.962 81.962 0 016.139 19.64z"/></g><g><g fill-rule="evenodd" clip-rule="evenodd" fill="#CCD1DD"><path d="M162.283 84.556c-1.74.176-44.12 8.195-51.679 59.035 17.821-12.054 36.994-29.875 51.679-59.035z"/><path d="M116.822 99.472c-10.209 24.948-11.102 49.047-16.029 69.509 6.667-10.253 11.886-21.203 20.514-26.74 17.379-11.153 27.632-24.939 27.632-24.939 1.342 2.234.45 26.732-26.29 45.012-19.305 13.194-31.668 33.011-31.668 33.011 0-34.362-5.325-27.235-3.532-46.408 3.541-37.886 29.373-49.445 29.373-49.445z"/><path d="M83.413 134.671s-2.914 30.441-1.792 41.03c2.684 25.398 1.342 49.895 1.342 49.895S91.83 201.549 99 192.188c7.171-9.361 26.335-24.947 26.335-24.947s-4.027 24.551-20.506 45.011c-21.813 27.076-24.108 50.337-24.108 50.337s-14.687-32.516-16.029-69.059c-1.457-39.659 18.721-58.859 18.721-58.859z"/><path d="M52.196 197.964c-1.749 8.91-6.677 32.56.892 57.057 7.568 24.498 19.172 28.533 36.993 61.994-.892-12.495-1.183-17.776 4.486-30.325 16.929-37.443 13.344-69.112 13.344-69.112s-16.444 25.637-19.172 34.759c-6.667 22.308-4.875 39.236-4.875 39.236s-9.811-34.361-13.396-46.362c-3.586-11.994-12.894-24.94-18.272-47.247z"/><path d="M53.088 275.536s4.353 40.781 21.416 62.391c15.136 19.172 28.082 22.758 42.769 39.687.45 0-2.641-16.487-2.19-26.739.45-10.262 3.117-28.984 1.74-43.22-2.633-27.235-9.803-43.722-9.803-43.722s-6.226 33.858-6.226 48.156c0 14.288 4.927 39.678 4.927 39.678s-15.64-28.083-24.099-36.993c-8.462-8.913-28.534-39.238-28.534-39.238z"/><path d="M69.169 342.404s10.386 46.954 32.074 62.391c26.281 18.723 58.85 25.841 58.85 25.841-6.676-21.805-8.018-45.454-12.045-54.815-7.763-18.015-24.498-47.705-24.498-47.705s-4.486 31.669 3.974 53.084c5.811 14.695 13.397 28.975 13.397 28.975s-28.524-23.658-36.993-30.325c-20.965-16.481-34.759-37.446-34.759-37.446z"/><path d="M154.265 377.163s4.998 30.617 10.261 40.579c12.947 24.497 28.083 32.065 28.083 32.065s-27.959-11.852-39.634-14.687C118.164 426.652 99 414.156 99 414.156c2.685 6.677 23.129 32.657 51.733 46.354 21.405 10.261 49.047-4.875 66.427-4.875-5.387-4.928-9.361-4.486-25.893-33.911-17.089-30.405-37.002-44.561-37.002-44.561zM433.352 84.556c1.739.176 44.11 8.195 51.679 59.035-17.822-12.054-36.994-29.875-51.679-59.035z"/><path d="M478.804 99.472c10.21 24.948 11.11 49.047 16.038 69.509-6.677-10.253-11.887-21.203-20.515-26.74-17.379-11.153-27.632-24.939-27.632-24.939-1.352 2.234-.45 26.732 26.289 45.012 19.306 13.194 31.668 33.011 31.668 33.011 0-34.362 5.325-27.235 3.533-46.408-3.54-37.886-29.381-49.445-29.381-49.445z"/><path d="M512.222 134.671s2.913 30.441 1.792 41.03c-2.693 25.398-1.352 49.895-1.352 49.895s-8.857-24.046-16.028-33.408c-7.17-9.361-26.343-24.947-26.343-24.947s4.036 24.551 20.515 45.011c21.813 27.076 24.1 50.337 24.1 50.337s14.687-32.516 16.038-69.059c1.455-39.659-18.722-58.859-18.722-58.859z"/><path d="M543.438 197.964c1.74 8.91 6.667 32.56-.9 57.057-7.568 24.498-19.163 28.533-36.993 61.994.9-12.495 1.191-17.776-4.478-30.325-16.929-37.443-13.344-69.112-13.344-69.112s16.443 25.637 19.163 34.759c6.677 22.308 4.885 39.236 4.885 39.236s9.811-34.361 13.396-46.362c3.586-11.994 12.894-24.94 18.271-47.247z"/><path d="M542.538 275.536s-4.346 40.781-21.406 62.391c-15.137 19.172-28.083 22.758-42.77 39.687-.45 0 2.632-16.487 2.19-26.739-.45-10.262-3.126-28.984-1.749-43.22 2.641-27.235 9.812-43.722 9.812-43.722s6.227 33.858 6.227 48.156c0 14.288-4.928 39.678-4.928 39.678s15.631-28.083 24.1-36.993c8.461-8.913 28.524-39.238 28.524-39.238z"/><path d="M526.457 342.404s-10.386 46.954-32.065 62.391c-26.29 18.723-58.85 25.841-58.85 25.841 6.667-21.805 8.009-45.454 12.045-54.815 7.763-18.015 24.497-47.705 24.497-47.705s4.486 31.669-3.982 53.084c-5.811 14.695-13.397 28.975-13.397 28.975s28.524-23.658 37.002-30.325c20.955-16.481 34.75-37.446 34.75-37.446z"/><path d="M441.36 377.163s-4.988 30.617-10.253 40.579c-12.945 24.497-28.082 32.065-28.082 32.065s27.95-11.852 39.634-14.687c34.803-8.469 53.975-20.965 53.975-20.965-2.692 6.677-23.128 32.657-51.731 46.354-21.415 10.261-49.048-4.875-66.428-4.875 5.378-4.928 9.361-4.486 25.894-33.911 17.087-30.404 36.991-44.56 36.991-44.56zM297.372 467.637s-23.155-8.47-45.913-8.92c-22.749-.441-60.598 11.533-73.544 13.396-15.578 2.243-40.128-3.135-40.128-3.135s13.397 20.515 60.651 20.965c37.444.353 65.076-20.515 89.123-20.073-39.634 15.587-53.481 39.236-53.481 39.236l11.163 2.693s31.165-36.551 52.58-38.345c21.407 1.794 52.572 38.345 52.572 38.345l11.153-2.693s-13.839-23.649-53.473-39.236c24.047-.441 51.679 20.426 89.122 20.073 47.255-.45 60.652-20.965 60.652-20.965s-24.551 5.378-40.137 3.135c-12.938-1.863-50.787-13.838-73.545-13.396-22.748.45-46.795 8.92-46.795 8.92z"/></g></g></svg>
